#!OML:ASF F:\Work\Patient Classification 1\justin\Session 1\justin.ASF
:FULLY-SPECIFIED
:DEGREES
4666
root 2.06177 16.9419 0.546231 -3.50817 37.8411 -1.4124
lowerback 12.7548 -3.27937 -4.14167
upperback -0.982368 -4.74673 3.17921
thorax -7.59582 -2.06897 6.63485
lowerneck -8.14685 -12.9056 -20.7698
upperneck 10.9061 -18.1266 21.5816
head 8.7705 -8.30649 8.40644
rclavicle -3.14328e-015 -2.38542e-015
rhumerus -26.619 14.9121 -85.3299
rradius 134.504
rwrist -7.11902
rhand -10.0036 35.6885
rfingers 7.12502
rthumb 15.9802 6.3277
lclavicle -3.14328e-015 -2.38542e-015
lhumerus -20.1701 -39.0546 106.784
lradius 123.312
lwrist 4.88041
lhand -12.8144 7.0531
lfingers 7.12502
lthumb 13.2721 36.6105
rfemur -26.6632 -1.94695 6.62748
rtibia 40.4479
rfoot -4.2515 -6.69444
rtoes -23.9658
lfemur 6.33579 9.14017 -13.5264
ltibia 35.3421
lfoot -31.2906 5.02791
ltoes -16.9219
4667
root 2.07523 16.9343 0.515721 -3.53646 37.5554 -1.38622
lowerback 12.7498 -3.38036 -3.99688
upperback -0.696533 -4.85439 3.18989
thorax -7.27993 -2.14674 6.56303
lowerneck -9.48193 -13.0952 -20.5572
upperneck 11.2993 -18.19 21.2627
head 9.09889 -8.25206 8.17901
rclavicle 9.86842e-014 0
rhumerus -25.2839 14.9401 -84.1852
rradius 134.349
rwrist -7.36964
rhand -11.2699 33.4176
rfingers 7.12502
rthumb 14.7605 3.9632
lclavicle 9.86842e-014 0
lhumerus -18.7848 -39.1284 106.247
lradius 123.083
lwrist 5.07768
lhand -12.9802 6.59506
lfingers 7.12502
lthumb 13.1123 36.1628
rfemur -26.7125 -1.76802 6.51718
rtibia 40.3434
rfoot -3.94883 -6.52024
rtoes -23.1531
lfemur 6.31324 9.37022 -13.6657
ltibia 35.5158
lfoot -31.4783 5.23163
ltoes -16.7508
4668
root 2.0871 16.9325 0.490107 -3.47277 37.2913 -1.324
lowerback 12.6931 -3.34896 -4.06358
upperback -0.841856 -4.82645 3.1506
thorax -7.40653 -2.12315 6.55815
lowerneck -8.73374 -12.8022 -20.6639
upperneck 11.0391 -17.924 21.6596
head 8.87431 -8.16277 8.43277
rclavicle 1.30825e-014 -2.54444e-014
rhumerus -25.0029 13.8459 -83.0274
rradius 134
rwrist -9.57903
rhand -9.10627 36.4144
rfingers 7.12502
rthumb 16.8441 7.12493
lclavicle 1.30825e-014 -2.54444e-014
lhumerus -18.8464 -39.4959 106.723
lradius 122.982
lwrist 4.9707
lhand -12.282 7.08133
lfingers 7.12502
lthumb 13.7852 36.6046
rfemur -26.8007 -1.52183 6.38812
rtibia 40.229
rfoot -3.83409 -6.46156
rtoes -22.3099
lfemur 6.25684 9.42147 -13.899
ltibia 35.6029
lfoot -31.6157 5.44306
ltoes -16.7726
4669
root 2.09375 16.9337 0.470651 -3.52391 37.0556 -1.48375
lowerback 12.7234 -3.37186 -3.99741
upperback -1.0877 -4.85078 3.14816
thorax -7.69176 -2.12025 6.54115
lowerneck -8.02835 -12.5036 -20.7599
upperneck 11.0194 -17.6826 22.0451
head 8.73832 -8.0789 8.67975
rclavicle 1.93007e-014 1.98785e-015
rhumerus -25.2346 13.4035 -82.372
rradius 134.091
rwrist -10.4209
rhand -8.39842 36.9834
rfingers 7.12502
rthumb 17.5254 7.75335
lclavicle 1.93007e-014 1.98785e-015
lhumerus -19.3207 -39.8633 107.424
lradius 122.965
lwrist 4.68454
lhand -11.9192 8.01023
lfingers 7.12502
lthumb 14.1349 37.5094
rfemur -26.8916 -1.23599 6.4869
rtibia 40.0961
rfoot -3.73709 -6.52252
rtoes -22.137
lfemur 6.20724 9.45488 -13.8828
ltibia 35.6205
lfoot -31.7089 5.48978
ltoes -16.8966
4670
root 2.10777 16.9328 0.442998 -3.48489 36.8385 -1.479
lowerback 12.8851 -3.45781 -3.92203
upperback -1.31661 -4.96232 3.12624
thorax -8.02501 -2.15856 6.52434
lowerneck -7.84605 -12.349 -20.6228
upperneck 11.2322 -17.5416 22.001
head 8.72233 -8.01782 8.68557
rclavicle -1.09015e-013 2.0276e-014
rhumerus -25.6948 14.1761 -82.1934
rradius 134.366
rwrist -7.39987
rhand -12.579 32.1705
rfingers 7.12502
rthumb 13.499 2.62799
lclavicle -1.09015e-013 2.0276e-014
lhumerus -19.6125 -40.0157 108.038
lradius 122.963
lwrist 4.63764
lhand -12.0124 8.29165
lfingers 7.12502
lthumb 14.0451 37.7971
rfemur -26.9506 -1.35394 6.43602
rtibia 39.9235
rfoot -3.57733 -6.18393
rtoes -22.8794
lfemur 6.17334 9.58793 -14.038
ltibia 35.5801
lfoot -31.7007 5.74472
ltoes -17.2589
4671
root 2.12488 16.939 0.423464 -3.5142 36.529 -1.53573
lowerback 12.9664 -3.55119 -3.801
upperback -1.49702 -5.07434 3.09603
thorax -8.26539 -2.20479 6.46296
lowerneck -7.71365 -12.1764 -20.3142
upperneck 11.4327 -17.3584 21.817
head 8.6685 -7.93408 8.6156
rclavicle -2.67862e-014 -1.35174e-014
rhumerus -25.6253 13.2867 -81.2926
rradius 133.879
rwrist -9.3615
rhand -10.6929 35.1808
rfingers 7.12502
rthumb 15.3163 5.76802
lclavicle -2.67862e-014 -1.35174e-014
lhumerus -19.8691 -40.0782 108.548
lradius 122.99
lwrist 4.44204
lhand -11.7693 8.47358
lfingers 7.12502
lthumb 14.2794 37.9626
rfemur -26.9189 -1.32919 6.46963
rtibia 39.7121
rfoot -3.41997 -5.89131
rtoes -23.4639
lfemur 6.23117 9.76084 -14.1329
ltibia 35.5061
lfoot -31.662 6.04
ltoes -17.1721
4672
root 2.13512 16.9499 0.422659 -3.67005 36.1731 -1.77676
lowerback 12.6953 -3.65524 -3.61608
upperback -1.40614 -5.1801 3.05302
thorax -8.01756 -2.27935 6.29803
lowerneck -7.96575 -12.0857 -19.8947
upperneck 11.6941 -17.271 21.7347
head 8.73063 -7.85791 8.5288
rclavicle 6.46237e-014 6.36111e-015
rhumerus -25.2919 12.982 -80.7468
rradius 133.709
rwrist -9.53162
rhand -11.235 34.697
rfingers 7.12502
rthumb 14.7941 5.24503
lclavicle 6.46237e-014 6.36111e-015
lhumerus -19.6103 -40.2884 108.507
lradius 122.828
lwrist 4.37655
lhand -11.8703 8.00003
lfingers 7.12502
lthumb 14.182 37.4959
rfemur -26.8317 -0.849646 6.69068
rtibia 39.4547
rfoot -3.31382 -5.97373
rtoes -23.1418
lfemur 6.35273 10.0181 -13.9326
ltibia 35.4205
lfoot -31.6205 6.23223
ltoes -17.5154
4673
root 2.14279 16.9551 0.417687 -3.70159 35.8419 -1.95606
lowerback 12.0194 -3.74771 -3.52403
upperback -1.0002 -5.27121 3.04777
thorax -7.1914 -2.37251 6.16244
lowerneck -8.66847 -12.155 -19.4282
upperneck 11.841 -17.33 21.6696
head 8.87084 -7.81933 8.3858
rclavicle 4.16019e-014 -1.74931e-014
rhumerus -24.139 12.5023 -79.848
rradius 133.5
rwrist -9.87783
rhand -11.7433 34.0774
rfingers 7.12502
rthumb 14.3044 4.59015
lclavicle 4.16019e-014 -1.74931e-014
lhumerus -18.4313 -40.6895 107.92
lradius 122.521
lwrist 4.56433
lhand -12.0626 7.17301
lfingers 7.12502
lthumb 13.9967 36.6818
rfemur -26.8894 -0.481728 6.83615
rtibia 39.1893
rfoot -3.20812 -5.92996
rtoes -22.5937
lfemur 6.37045 10.2614 -13.7905
ltibia 35.3196
lfoot -31.6495 6.28654
ltoes -17.7483
4674
root 2.15692 16.9595 0.398458 -3.68046 35.494 -2.11058
lowerback 11.7728 -3.83554 -3.14758
upperback -0.958658 -5.33761 2.92314
thorax -7.04416 -2.42909 5.80133
lowerneck -8.974 -12.1397 -18.9152
upperneck 12.0939 -17.3499 21.5216
head 8.94895 -7.78837 8.23539
rclavicle 9.33542e-014 7.95139e-016
rhumerus -23.6683 11.9387 -79.0943
rradius 133.411
rwrist -9.89258
rhand -12.5906 32.0133
rfingers 7.12502
rthumb 13.4878 2.47003
lclavicle 9.33542e-014 7.95139e-016
lhumerus -17.9947 -41.0446 107.809
lradius 122.448
lwrist 4.8385
lhand -11.7121 7.17393
lfingers 7.12502
lthumb 14.3344 36.6591
rfemur -27.0353 -0.399732 6.9314
rtibia 38.9705
rfoot -2.99074 -5.56791
rtoes -22.5099
lfemur 6.30241 10.4114 -13.8128
ltibia 35.2244
lfoot -31.6654 6.71206
ltoes -18.2154
4675
root 2.17219 16.9655 0.38372 -3.61431 35.197 -2.0835
lowerback 11.9954 -3.66842 -3.62088
upperback -1.33146 -5.16374 3.28561
thorax -7.51804 -2.29127 6.47623
lowerneck -8.36621 -12.0507 -19.1096
upperneck 12.1912 -17.2636 21.3004
head 8.84088 -7.80732 8.23435
rclavicle -6.44311e-014 1.03368e-014
rhumerus -24.1305 11.2924 -77.3841
rradius 133.506
rwrist -10.0531
rhand -13.7725 28.3125
rfingers 7.12502
rthumb 12.3485 -1.30282
lclavicle -6.44311e-014 1.03368e-014
lhumerus -18.5031 -41.1973 109.348
lradius 122.275
lwrist 4.99943
lhand -11.681 7.10183
lfingers 7.12502
lthumb 14.3644 36.5848
rfemur -27.0966 -0.325295 6.85317
rtibia 38.8131
rfoot -2.67644 -5.24895
rtoes -22.1878
lfemur 6.16295 10.6757 -14.0228
ltibia 35.1545
lfoot -31.2489 8.25228
ltoes -21.9163
4676
root 2.18361 16.9662 0.372899 -3.43548 34.9413 -1.91477
lowerback 11.8146 -3.71347 -3.9964
upperback -1.32248 -5.26509 3.42338
thorax -7.34644 -2.33111 6.8348
lowerneck -8.46491 -11.9371 -18.962
upperneck 12.2033 -17.1042 21.2881
head 8.81192 -7.71995 8.23215
rclavicle 6.49715e-014 -1.82882e-014
rhumerus -23.8272 10.59 -76.1153
rradius 133.378
rwrist -10.435
rhand -13.0569 31.7803
rfingers 7.12502
rthumb 13.0383 2.20779
lclavicle 6.49715e-014 -1.82882e-014
lhumerus -18.0403 -41.3551 109.61
lradius 122.07
lwrist 4.93882
lhand -11.9869 7.15944
lfingers 7.12502
lthumb 14.0696 36.6632
rfemur -27.2245 -0.288867 6.65964
rtibia 38.7446
rfoot -2.47878 -4.89983
rtoes -22.6285
lfemur 6.2786 10.3346 -14.3722
ltibia 35.0692
lfoot -31.7122 7.45134
ltoes -18.8175
4677
root 2.19788 16.9691 0.355057 -3.36929 34.4617 -2.15041
lowerback 11.9383 -3.81334 -3.61869
upperback -1.61469 -5.34527 3.44509
thorax -7.75278 -2.3611 6.69084
lowerneck -8.33671 -11.7946 -18.5816
upperneck 12.3876 -16.9673 21.0837
head 8.75885 -7.65474 8.132
rclavicle -1.66115e-014 -1.11319e-014
rhumerus -23.9495 9.91454 -75.3129
rradius 133.302
rwrist -10.5877
rhand -12.7052 33.4545
rfingers 7.12502
rthumb 13.3774 3.90399
lclavicle -1.66115e-014 -1.11319e-014
lhumerus -18.0314 -41.4093 109.884
lradius 121.949
lwrist 4.64201
lhand -12.1967 7.66266
lfingers 7.12502
lthumb 13.8675 37.1803
rfemur -27.5939 -0.166108 6.85603
rtibia 38.7381
rfoot -2.49997 -4.34499
rtoes -24.6007
lfemur 6.17242 10.2845 -14.411
ltibia 34.9493
lfoot -31.738 7.96607
ltoes -19.192
4678
root 2.21819 16.9728 0.34017 -3.42355 33.8145 -2.58733
lowerback 11.9485 -3.90527 -3.02624
upperback -1.81857 -5.37366 3.51014
thorax -8.02234 -2.38402 6.44768
lowerneck -8.36214 -11.6472 -18.2581
upperneck 12.7132 -16.826 20.9343
head 8.79257 -7.57377 8.05864
rclavicle -4.40277e-014 2.62396e-014
rhumerus -24.0477 9.2274 -74.4624
rradius 133.412
rwrist -10.6055
rhand -12.4302 32.8093
rfingers 7.12502
rthumb 13.6424 3.2764
lclavicle -4.40277e-014 2.62396e-014
lhumerus -17.8098 -41.3347 109.969
lradius 121.716
lwrist 4.28062
lhand -12.346 7.49637
lfingers 7.12502
lthumb 13.7235 37.0238
rfemur -28.0266 -0.0160819 7.26169
rtibia 38.8105
rfoot -2.49601 -3.67949
rtoes -25.931
lfemur 6.10959 10.36 -14.2574
ltibia 34.8623
lfoot -31.8288 8.59185
ltoes -19.7465
4679
root 2.2429 16.9722 0.330736 -3.3934 33.2668 -2.77193
lowerback 11.971 -4.05152 -2.57364
upperback -1.99496 -5.5025 3.48334
thorax -8.25466 -2.45571 6.20125
lowerneck -8.42441 -11.3996 -18.0203
upperneck 13.0226 -16.5698 21.0297
head 8.8387 -7.4255 8.11
rclavicle 7.03325e-014 1.47101e-014
rhumerus -24.1478 8.43873 -73.4991
rradius 133.555
rwrist -10.963
rhand -12.2049 32.0236
rfingers 7.12502
rthumb 13.8595 2.50537
lclavicle 7.03325e-014 1.47101e-014
lhumerus -17.6431 -41.106 109.89
lradius 121.438
lwrist 4.01842
lhand -12.2329 6.76631
lfingers 7.12502
lthumb 13.8326 36.2864
rfemur -28.3809 -0.14407 7.42543
rtibia 38.8968
rfoot -2.22347 -2.97906
rtoes -25.349
lfemur 6.13327 10.4326 -14.2812
ltibia 34.806
lfoot -32.1078 8.73453
ltoes -18.8305
4680
root 2.26427 16.9617 0.319651 -3.2919 32.7125 -2.92529
lowerback 12.1774 -4.22404 -2.1196
upperback -2.35899 -5.66815 3.42859
thorax -8.79936 -2.53174 5.96608
lowerneck -8.22208 -11.0675 -17.6684
upperneck 13.2911 -16.2154 20.9963
head 8.77583 -7.25098 8.1226
rclavicle 2.96935e-015 -2.22639e-014
rhumerus -24.3745 7.64472 -72.5647
rradius 133.577
rwrist -11.6449
rhand -12.4727 32.2601
rfingers 7.12502
rthumb 13.6014 2.72445
lclavicle 2.96935e-015 -2.22639e-014
lhumerus -17.9735 -40.6819 109.978
lradius 121.299
lwrist 3.81008
lhand -12.1237 6.41177
lfingers 7.12502
lthumb 13.9378 35.9246
rfemur -28.9089 -0.343442 7.54649
rtibia 39.0435
rfoot -1.71012 -2.21657
rtoes -24.0946
lfemur 6.04572 10.6092 -14.3237
ltibia 34.7589
lfoot -32.247 8.9332
ltoes -18.2708
